<svg xmlns="http://www.w3.org/2000/svg" viewBox="0 0 512 512" role="img" aria-labelledby="title">
  <title>Red Ganesh Logo</title>
  <rect width="512" height="512" fill="#fff"/>
  <path
    fill="#f20d0d"
    d="M253 34c16 13 32 22 51 25 33 6 61 25 74 55 38-6 77 1 111 25-30 13-50 35-60 65-5 16-5 33 2 50 16 1 31 8 45 19-26 6-50 17-70 34 5 27 18 52 39 74-37-5-68-19-94-43-14 22-32 39-55 51 32 6 59 24 79 51-37 4-71 16-103 36-22 14-41 12-58-7-9-10-22-14-35-11-27 7-54 3-80-12 13-22 18-46 14-71-34-5-62-21-85-48 21-2 38-10 51-25-20-9-39-19-57-31 12-28 34-45 66-52-13-14-29-23-47-28 14-31 39-49 73-54 10-1 20-1 30 1 12-22 31-37 56-46 28-9 48-22 56-54Z"
  />
  <path
    fill="#fff"
    d="M108 139c22 11 36 30 43 56 8 28 23 54 44 77 16-15 24-31 23-49 25 21 53 36 83 46 29 10 50 28 63 54 9-29 6-54-10-76-15-21-37-34-65-40-33-7-61-23-85-48-21 25-40 27-58 7-9-11-21-20-38-27Zm280 17c-11 31-31 56-61 75 27 26 55 37 84 31 22-5 38-19 49-43-11 44-35 72-72 82-28 7-55 0-80-21-17 20-27 45-30 74-3 30 7 55 30 74-33-13-51-37-56-71-4-31 5-58 28-82-40-13-74-33-101-60-2 24-13 45-31 61 9 8 20 14 33 18-30 12-60 16-91 12 35 21 73 26 116 16-23 23-51 35-84 37 26 11 54 13 84 6 30-8 55-2 74 17 16 16 34 21 56 14 31-9 61-10 92-2-27-20-58-28-93-25 22-18 38-42 47-72 15 19 35 31 59 36-21-18-34-40-40-66 18-16 38-28 61-35-30 0-55 10-75 31-30 13-60 8-90-16 24-23 43-52 61-89Z"
    opacity=".96"
  />
  <path fill="#fff" d="M233 92h45l-9 29h-27l-9-29Zm-29 55 20 11 8 26-33-12 5-25Zm104 0-20 11-8 26 33-12-5-25Zm-75 217h44l-7 11h-30l-7-11Z"/>
</svg>
